<svg xmlns="http://www.w3.org/2000/svg" xmlns:xlink="http://www.w3.org/1999/xlink" version="1.1" id="Layer_1" x="0px" y="0px" viewBox="0 0 1920 1080" style="enable-background:new 0 0 1920 1080;" xml:space="preserve">
<path d="M1480.2,390.7c-82.7,0-149.8,67.1-149.8,149.8c0,82.7,67.1,149.8,149.8,149.8c82.7,0,149.8-67.1,149.8-149.8  C1630,457.8,1562.9,390.7,1480.2,390.7z M1528,625.9h-59.8c-27.8,0-41.7-3.9-55.1-15.4c-16-13.9-24.4-38-24.4-69.5  c0-37.3,13.1-65.5,36-77.3c10.5-5.2,27.7-8.5,45-8.5h58.3v33.4h-54c-17,0-28.2,3.7-35.3,11.8c-5.6,6.6-8.7,19.8-8.7,37.3  c0,23.5,4.9,40.5,13.8,47.7c6.1,4.7,16.7,7.2,31.5,7.2h52.8V625.9z M1574.3,556.9h-95.5v-32.8h95.5V556.9z" fill="#ffffff"/>
<path d="M446.6,610.9h-67c-31.8,0-47.1-4.3-62.1-17.3c-17.9-15.6-27.4-43.1-27.4-78.6c0-42.5,14.7-74,40.5-87.3  c11.6-5.8,30.9-9.5,50.9-9.5h65.3v34.4h-60.4c-18.8,0-31.5,4.6-40.5,14.7c-6.6,7.8-10.4,23.1-10.4,43.9c0,27.2,5.8,47.4,16.5,56.1  c7.8,6.1,19.6,9.2,35.8,9.2h58.9V610.9z" fill="#ffffff"/>
<path d="M508.8,470.1h39.6c23.4,0,35.2,3.2,44.5,12.4c8.7,8.4,13.3,22.2,13.3,40.4v87.8h-38.7v-80c0-25.1-4.9-30.6-27.4-30.6h-31.2  v110.7h-38.7V418.1h38.7V470.1z" fill="#ffffff"/>
<rect x="629.7" y="418.1" width="38.7" height="37.6" fill="#ffffff"/>
<rect x="629.7" y="470.1" width="38.7" height="140.7" fill="#ffffff"/>
<path d="M759.6,470.1c26.3,0,37.3,2.6,49.1,12.1c16.5,12.7,25.1,33.5,25.1,60.4c0,20.2-6.4,37.6-18.5,50  c-12.4,12.7-27.2,18.2-50.6,18.2h-34.1v52.9H692V470.1H759.6z M730.7,580.8h23.7c26.6,0,39.9-13.6,39.9-41c0-25.4-13.3-39.6-37-39.6  h-26.6V580.8z" fill="#ffffff"/>
<path d="M866.2,418.1h38.7v52h35.8v30h-35.8v51.1c0,14.4,0.6,18.8,3.2,22.5c3.2,4.6,9.2,6.9,17.3,6.9h15.3v30h-28  c-16.2,0-26.6-3.2-34.1-10.7c-9.5-9-12.4-19.4-12.4-42.2v-57.8h-24.6v-30h24.6V418.1z" fill="#ffffff"/>
<path d="M1083.6,490.7c11.6,13.9,17,30.6,17,51.4c0,43.6-28.9,70.8-75.1,70.8c-46.5,0-73.7-26.9-73.7-73.4  c0-43.1,29.2-71.4,74.3-71.4C1051.8,468.1,1071.2,475.6,1083.6,490.7z M991.4,540.9c0,27.7,11.8,42.2,35.2,42.2  c22.8,0,34.4-14.2,34.4-42.8c0-28-11.8-42.5-34.7-42.5C1003,497.9,991.4,512,991.4,540.9z" fill="#ffffff"/>
<path d="M1247.3,500.2h-68.8c-17.3,0-21.4,2.3-21.4,12.4c0,5.2,2,9,6.4,11.6c2.6,1.7,6.9,2.3,18.8,2.3h22.8  c30.9,0,48.5,14.4,48.5,40.2c0,16.8-9,33.5-21.7,39.9c-5.8,3.2-15.6,4.3-32.6,4.3h-80v-30h68.8c12.7,0,17.3-0.3,20.8-1.2  c4-0.9,6.9-5.2,6.9-10.7c0-5.5-2.6-10.1-6.6-12.1c-2.9-1.4-6.9-1.7-16.8-1.7h-23.7c-17.9,0-26.3-2-34.7-8.1  c-10.4-7.2-16.8-20.8-16.8-35.8c0-13.6,5.5-25.7,15.3-33.8c6.6-5.2,15.3-7.2,32.1-7.2h82.6V500.2z" fill="#ffffff"/>
<g>
	<path d="M1265.4,599.9v-2.4h11.5v2.4h-4.4v11h-2.8v-11H1265.4z" fill="#ffffff"/>
	<path d="M1286.5,607.9l3.5-10.5h4.2v13.4h-2.7v-10.1l-3.5,10.1h-2.9l-3.3-10.1v10.1h-2.7v-13.4h4.2L1286.5,607.9z" fill="#ffffff"/>
</g>
</svg>